# xmcd
#
# Track frame offsets:
#	151
#	14676
#	34579
#	47892
#	58511
#	71388
#	84119
#	95302
#	106957
#	119458
#
# Disc length: 1755 seconds
#
# Revision: 1
# Processed by: cddbd v1.5.2PL0 Copyright (c) Steve Scherf et al.
# Submitted via: audiograbber 1.83.01
#
DISCID=7806d90a
DTITLE=Delbert Trotchie - Country Classics
DYEAR=2011
DGENRE=Country
TTITLE0=Only If There Is Another You
TTITLE1=Darling Think It Over
TTITLE2=Borrowed Angel
TTITLE3=I'll Take The Blame
TTITLE4=Crying My Heart Out Over You
TTITLE5=If That's The Way You Feel
TTITLE6=Let's Love The Bad Times Away
TTITLE7=Lonely Lady
TTITLE8=Lost To A Stranger
TTITLE9=I Wouldn't Change You If I Could
EXTD=
EXTT0=
EXTT1=
EXTT2=
EXTT3=
EXTT4=
EXTT5=
EXTT6=
EXTT7=
EXTT8=
EXTT9=
PLAYORDER=
